<?xml version="1.0" encoding="UTF-8" standalone="no"?>
<!-- Created with Inkscape (http://www.inkscape.org/) -->

<svg
   xmlns:dc="http://purl.org/dc/elements/1.1/"
   xmlns:cc="http://creativecommons.org/ns#"
   xmlns:rdf="http://www.w3.org/1999/02/22-rdf-syntax-ns#"
   xmlns:svg="http://www.w3.org/2000/svg"
   xmlns="http://www.w3.org/2000/svg"
   xmlns:sodipodi="http://sodipodi.sourceforge.net/DTD/sodipodi-0.dtd"
   xmlns:inkscape="http://www.inkscape.org/namespaces/inkscape"
   width="5.246345mm"
   height="5.2506499mm"
   viewBox="0 0 5.246345 5.2506499"
   version="1.1"
   id="svg3736"
   inkscape:version="0.92.2 (5c3e80d, 2017-08-06)"
   sodipodi:docname="preferences-system-symbolic.svg">
  <defs
     id="defs3730" />
  <sodipodi:namedview
     id="base"
     pagecolor="#ffffff"
     bordercolor="#666666"
     borderopacity="1.0"
     inkscape:pageopacity="0.0"
     inkscape:pageshadow="2"
     inkscape:zoom="22.4"
     inkscape:cx="12.480732"
     inkscape:cy="11.117365"
     inkscape:document-units="mm"
     inkscape:current-layer="layer1"
     showgrid="false"
     fit-margin-top="0"
     fit-margin-left="0"
     fit-margin-right="0"
     fit-margin-bottom="0"
     inkscape:pagecheckerboard="true"
     inkscape:window-width="1920"
     inkscape:window-height="1017"
     inkscape:window-x="-8"
     inkscape:window-y="-8"
     inkscape:window-maximized="1" />
  <metadata
     id="metadata3733">
    <rdf:RDF>
      <cc:Work
         rdf:about="">
        <dc:format>image/svg+xml</dc:format>
        <dc:type
           rdf:resource="http://purl.org/dc/dcmitype/StillImage" />
        <dc:title></dc:title>
      </cc:Work>
    </rdf:RDF>
  </metadata>
  <g
     inkscape:label="Ebene 1"
     inkscape:groupmode="layer"
     id="layer1"
     transform="translate(-132.69208,-153.76773)">
    <path
       inkscape:connector-curvature="0"
       d="m 133.85067,153.76773 c -0.13207,0 -0.26008,0.0303 -0.37812,0.0713 l 0.62338,0.62168 c 0.12811,0.12775 0.12811,0.33085 0,0.45861 l -0.23504,0.2344 c -0.12811,0.12775 -0.33177,0.12775 -0.45988,0 l -0.62338,-0.62167 c -0.0412,0.11771 -0.0715,0.24537 -0.0715,0.37708 0,0.63039 0.51245,1.14143 1.14458,1.14143 0.13207,0 0.26008,-0.0303 0.37812,-0.0713 l 0.38834,0.38727 a 0.81763656,0.81539315 0 0 1 0.0204,0 l 0.68471,-0.68282 -0.39856,-0.39746 c 0.0411,-0.11772 0.0715,-0.24537 0.0715,-0.37708 0,-0.6304 -0.51245,-1.14144 -1.14458,-1.14144 z m 2.16652,2.609 -0.68471,0.68282 a 0.81763656,0.81539315 0 0 1 0.0102,0.0306 l 0.37812,0.37708 c -0.0412,0.11772 -0.0715,0.24538 -0.0715,0.37709 0,0.6304 0.51244,1.14144 1.14457,1.14144 0.14336,0 0.28231,-0.0335 0.40878,-0.0815 l -0.66426,-0.66244 c -0.12811,-0.12776 -0.12811,-0.34105 0,-0.46881 l 0.22482,-0.2242 c 0.0641,-0.0639 0.15146,-0.10192 0.23505,-0.10192 0.0836,0 0.17099,0.038 0.23505,0.10192 l 0.64382,0.64205 c 0.0347,-0.109 0.0613,-0.22606 0.0613,-0.34651 0,-0.63039 -0.51244,-1.14143 -1.14458,-1.14143 -0.13207,0 -0.26008,0.0303 -0.37812,0.0713 l -0.39855,-0.39747 z"
       id="path3908"
       style="color:#000000;font-style:normal;font-variant:normal;font-weight:normal;font-stretch:normal;font-size:medium;line-height:normal;font-family:Sans;-inkscape-font-specification:Sans;text-indent:0;text-align:start;text-decoration:none;text-decoration-line:none;letter-spacing:normal;word-spacing:normal;text-transform:none;writing-mode:lr-tb;direction:ltr;text-anchor:start;display:inline;overflow:visible;visibility:visible;fill:#bebebe;fill-opacity:1;fill-rule:nonzero;stroke:none;stroke-width:0.9921875;marker:none;enable-background:accumulate"
       inkscape:export-xdpi="2478.8101"
       inkscape:export-ydpi="2478.8101" />
    <path
       inkscape:connector-curvature="0"
       d="m 137.26019,153.76812 -0.51014,0.47271 c -0.14932,0.13836 -0.17502,0.37776 -0.0881,0.56113 l -1.9474,1.97158 a 0.49333973,0.48915762 0 0 0 -0.0103,8e-5 0.49333973,0.48915762 0 0 0 -0.27787,-0.0488 0.49333973,0.48915762 0 0 0 -0.28662,0.14488 l -1.30512,1.31444 a 0.49414811,0.4899592 0 1 0 0.70427,0.68747 l 1.30512,-1.31444 a 0.49333973,0.48915762 0 0 0 0.0983,-0.57141 l 1.94748,-1.96138 c 0.18449,0.0817 0.4211,0.0483 0.5645,-0.0961 l 0.46871,-0.51314 -0.66284,-0.64704 z"
       id="path3910"
       style="color:#000000;font-style:normal;font-variant:normal;font-weight:normal;font-stretch:normal;font-size:medium;line-height:normal;font-family:Sans;-inkscape-font-specification:Sans;text-indent:0;text-align:start;text-decoration:none;text-decoration-line:none;letter-spacing:normal;word-spacing:normal;text-transform:none;writing-mode:lr-tb;direction:ltr;text-anchor:start;display:inline;overflow:visible;visibility:visible;fill:#bebebe;fill-opacity:1;fill-rule:nonzero;stroke:none;stroke-width:0.9893322;marker:none;enable-background:accumulate"
       inkscape:export-xdpi="2478.8101"
       inkscape:export-ydpi="2478.8101" />
  </g>
</svg>
